<?xml version="1.0" encoding="UTF-8"?>
<svg width="58px" height="60px" viewBox="0 0 58 60" version="1.1" xmlns="http://www.w3.org/2000/svg" xmlns:xlink="http://www.w3.org/1999/xlink">
    <!-- Generator: Sketch 48.1 (47250) - http://www.bohemiancoding.com/sketch -->
    <title>music</title>
    <desc>Created with Sketch.</desc>
    <defs></defs>
    <g id="Page-1" stroke="none" stroke-width="1" fill="none" fill-rule="evenodd">
        <g id="music" fill="#FFFFFF" fill-rule="nonzero">
            <g id="Group" transform="translate(12.000000, 46.000000)">
                <circle id="Oval" cx="1" cy="1" r="1"></circle>
                <circle id="Oval" cx="4" cy="4" r="1"></circle>
                <circle id="Oval" cx="7" cy="1" r="1"></circle>
                <circle id="Oval" cx="7" cy="7" r="1"></circle>
                <circle id="Oval" cx="10" cy="4" r="1"></circle>
                <circle id="Oval" cx="13" cy="1" r="1"></circle>
                <circle id="Oval" cx="13" cy="7" r="1"></circle>
                <circle id="Oval" cx="16" cy="4" r="1"></circle>
                <circle id="Oval" cx="19" cy="1" r="1"></circle>
                <circle id="Oval" cx="19" cy="7" r="1"></circle>
                <circle id="Oval" cx="22" cy="4" r="1"></circle>
                <circle id="Oval" cx="25" cy="1" r="1"></circle>
                <circle id="Oval" cx="25" cy="7" r="1"></circle>
                <circle id="Oval" cx="28" cy="4" r="1"></circle>
                <circle id="Oval" cx="31" cy="1" r="1"></circle>
                <circle id="Oval" cx="31" cy="7" r="1"></circle>
                <circle id="Oval" cx="34" cy="4" r="1"></circle>
                <circle id="Oval" cx="4" cy="10" r="1"></circle>
                <circle id="Oval" cx="10" cy="10" r="1"></circle>
                <circle id="Oval" cx="16" cy="10" r="1"></circle>
                <circle id="Oval" cx="22" cy="10" r="1"></circle>
                <circle id="Oval" cx="28" cy="10" r="1"></circle>
            </g>
            <path d="M55,52.142 L55,39 L56,39 C56.553,39 57,38.553 57,38 L57,33 L57,28 L57,23 C57,22.447 56.553,22 56,22 L54.675,22 C53.304,13.187 47.571,5.946 39.857,2.386 L39.875,2.364 L39.403,2.175 C36.205,0.774 32.683,0 29,0 C25.316,0 21.793,0.775 18.595,2.176 L18.161,2.35 L18.178,2.37 C10.446,5.924 4.697,13.174 3.324,22 L2,22 C1.447,22 1,22.447 1,23 L1,28 L1,33 L1,38 C1,38.553 1.447,39 2,39 L3,39 L3,52.142 C1.279,52.589 0,54.141 0,56 L0,59 C0,59.553 0.447,60 1,60 L13,60 L45,60 L57,60 C57.553,60 58,59.553 58,59 L58,56 C58,54.141 56.721,52.589 55,52.142 Z M55,32 L47,32 L47,29 L55,29 L55,32 Z M53.83,24 L55,24 L55,27 L47,27 L47,24 L47.732,24 L47.752,24 L53.811,24 L53.83,24 Z M38.531,4 C45.805,7.163 51.276,13.821 52.656,22 L48.553,22 C47.162,15.232 42.333,9.619 35.877,7.232 L38.531,4 Z M42.707,31.707 L41.707,32.707 C41.52,32.895 41.266,33 41,33 L39,33 C38.734,33 38.48,32.895 38.293,32.707 L37.293,31.707 C37.105,31.52 37,31.266 37,31 L37,29 C37,28.734 37.105,28.48 37.293,28.293 L38.293,27.293 C38.48,27.105 38.734,27 39,27 L41,27 C41.266,27 41.52,27.105 41.707,27.293 L42.707,28.293 C42.895,28.48 43,28.734 43,29 L43,31 C43,31.266 42.895,31.52 42.707,31.707 Z M43,37 L43,39 C43,39.266 42.895,39.52 42.707,39.707 L41.707,40.707 C41.52,40.895 41.266,41 41,41 L39,41 C38.734,41 38.48,40.895 38.293,40.707 L37.293,39.707 C37.105,39.52 37,39.266 37,39 L37,37 C37,36.734 37.105,36.48 37.293,36.293 L38.293,35.293 C38.48,35.105 38.734,35 39,35 L41,35 C41.266,35 41.52,35.105 41.707,35.293 L42.707,36.293 C42.895,36.48 43,36.734 43,37 Z M42.707,23.707 L41.707,24.707 C41.52,24.895 41.266,25 41,25 L39,25 C38.734,25 38.48,24.895 38.293,24.707 L37.293,23.707 C37.105,23.52 37,23.266 37,23 L37,21 C37,20.734 37.105,20.48 37.293,20.293 L38.293,19.293 C38.48,19.105 38.734,19 39,19 L41,19 C41.266,19 41.52,19.105 41.707,19.293 L42.707,20.293 C42.895,20.48 43,20.734 43,21 L43,23 C43,23.266 42.895,23.52 42.707,23.707 Z M31,21 L35,21 C35.553,21 36,21.447 36,22 C36,22.553 35.553,23 35,23 L31,23 C30.447,23 30,22.553 30,22 C30,21.447 30.447,21 31,21 Z M31,29 L35,29 C35.553,29 36,29.447 36,30 C36,30.553 35.553,31 35,31 L31,31 C30.447,31 30,30.553 30,30 C30,29.447 30.447,29 31,29 Z M31,37 L35,37 C35.553,37 36,37.447 36,38 C36,38.553 35.553,39 35,39 L31,39 C30.447,39 30,38.553 30,38 C30,37.447 30.447,37 31,37 Z M23,21 L27,21 C27.553,21 28,21.447 28,22 C28,22.553 27.553,23 27,23 L23,23 C22.447,23 22,22.553 22,22 C22,21.447 22.447,21 23,21 Z M27,31 L23,31 C22.447,31 22,30.553 22,30 C22,29.447 22.447,29 23,29 L27,29 C27.553,29 28,29.447 28,30 C28,30.553 27.553,31 27,31 Z M28,38 C28,38.553 27.553,39 27,39 L23,39 C22.447,39 22,38.553 22,38 C22,37.447 22.447,37 23,37 L27,37 C27.553,37 28,37.447 28,38 Z M19.505,3.985 L22.16,7.217 C15.684,9.596 10.841,15.214 9.447,22 L5.345,22 C6.727,13.808 12.214,7.142 19.505,3.985 Z M20.707,31.707 L19.707,32.707 C19.52,32.895 19.266,33 19,33 L17,33 C16.734,33 16.48,32.895 16.293,32.707 L15.293,31.707 C15.105,31.52 15,31.266 15,31 L15,29 C15,28.734 15.105,28.48 15.293,28.293 L16.293,27.293 C16.48,27.105 16.734,27 17,27 L19,27 C19.266,27 19.52,27.105 19.707,27.293 L20.707,28.293 C20.895,28.48 21,28.734 21,29 L21,31 C21,31.266 20.895,31.52 20.707,31.707 Z M21,37 L21,39 C21,39.266 20.895,39.52 20.707,39.707 L19.707,40.707 C19.52,40.895 19.266,41 19,41 L17,41 C16.734,41 16.48,40.895 16.293,40.707 L15.293,39.707 C15.105,39.52 15,39.266 15,39 L15,37 C15,36.734 15.105,36.48 15.293,36.293 L16.293,35.293 C16.48,35.105 16.734,35 17,35 L19,35 C19.266,35 19.52,35.105 19.707,35.293 L20.707,36.293 C20.895,36.48 21,36.734 21,37 Z M20.707,23.707 L19.707,24.707 C19.52,24.895 19.266,25 19,25 L17,25 C16.734,25 16.48,24.895 16.293,24.707 L15.293,23.707 C15.105,23.52 15,23.266 15,23 L15,21 C15,20.734 15.105,20.48 15.293,20.293 L16.293,19.293 C16.48,19.105 16.734,19 17,19 L19,19 C19.266,19 19.52,19.105 19.707,19.293 L20.707,20.293 C20.895,20.48 21,20.734 21,21 L21,23 C21,23.266 20.895,23.52 20.707,23.707 Z M3,24 L4.189,24 L10.267,24 L11,24 L11,27 L3,27 L3,24 Z M3,29 L11,29 L11,32 L3,32 L3,29 Z M3,34 L11,34 L11,37 L10,37 L4,37 L3,37 L3,34 Z M9,39 L9,52 L5,52 L5,39 L9,39 Z M47,50 L47,52.127 C46.864,52.162 46.736,52.216 46.605,52.265 C46.541,52.289 46.475,52.305 46.412,52.332 C46.192,52.428 45.981,52.541 45.784,52.673 C45.74,52.703 45.702,52.739 45.659,52.771 C45.508,52.88 45.364,52.996 45.23,53.125 C45.169,53.184 45.116,53.248 45.059,53.31 C44.954,53.425 44.854,53.542 44.763,53.669 C44.709,53.743 44.66,53.819 44.612,53.897 C44.532,54.026 44.46,54.159 44.394,54.298 C44.355,54.38 44.316,54.461 44.282,54.547 C44.222,54.7 44.176,54.859 44.135,55.02 C44.115,55.098 44.09,55.172 44.075,55.251 C44.029,55.494 44,55.743 44,56 L44,58 L14,58 L14,56 C14,55.743 13.971,55.494 13.924,55.25 C13.909,55.171 13.883,55.096 13.864,55.019 C13.823,54.857 13.777,54.699 13.717,54.546 C13.683,54.461 13.644,54.38 13.605,54.297 C13.542,54.164 13.474,54.036 13.397,53.911 C13.511,53.861 13.619,53.795 13.709,53.709 C13.89,53.52 14,53.26 14,53 C14,52.729 13.89,52.479 13.71,52.29 C13.34,51.92 12.66,51.92 12.29,52.29 C12.204,52.38 12.137,52.486 12.088,52.599 C11.927,52.5 11.762,52.408 11.588,52.332 C11.526,52.305 11.459,52.289 11.395,52.265 C11.265,52.216 11.137,52.162 11,52.127 L11,45 L47,45 L47,50 Z M53,52 L49,52 L49,39 L53,39 L53,52 Z M48,37 L47,37 L47,34 L55,34 L55,37 L54,37 L48,37 Z" id="Shape"></path>
        </g>
    </g>
</svg>